<?xml version="1.0" standalone="no"?>
<!DOCTYPE svg PUBLIC "-//W3C//DTD SVG 20010904//EN"
 "http://www.w3.org/TR/2001/REC-SVG-20010904/DTD/svg10.dtd">
<svg version="1.0" xmlns="http://www.w3.org/2000/svg"
 width="260.000000pt" height="260.000000pt" viewBox="0 0 260.000000 260.000000"
 preserveAspectRatio="xMidYMid meet">
<metadata>
Created by potrace 1.14, written by Peter Selinger 2001-2017
</metadata>
<g transform="translate(0.000000,260.000000) scale(0.100000,-0.100000)"
fill="#000000" stroke="none">
<path d="M613 2274 c-144 -28 -253 -129 -280 -259 -5 -22 -8 -350 -8 -730 1
-737 0 -726 51 -807 35 -56 73 -87 144 -121 l65 -31 415 -1 c228 -1 425 1 438
5 27 6 821 794 831 825 9 23 6 839 -3 874 -23 96 -120 197 -221 232 -32 10
-180 13 -732 14 -381 0 -696 0 -700 -1z m1384 -231 c60 -28 62 -44 62 -411 l1
-331 -308 -3 -307 -3 -41 -28 c-47 -32 -76 -68 -92 -116 -8 -23 -12 -128 -12
-322 l0 -288 -337 0 c-293 0 -341 3 -365 17 -59 34 -57 17 -57 748 1 738 -2
706 63 738 46 22 1345 22 1393 -1z m-107 -968 c0 -12 -365 -377 -371 -371 -10
10 -2 368 8 374 18 11 363 8 363 -3z"/>
</g>
</svg>
